<?xml version="1.0" standalone="no"?><!DOCTYPE svg PUBLIC "-//W3C//DTD SVG 1.1//EN" "http://www.w3.org/Graphics/SVG/1.1/DTD/svg11.dtd"><svg t="1584714606655" class="icon" viewBox="0 0 1066 1024" version="1.1" xmlns="http://www.w3.org/2000/svg" p-id="1709" xmlns:xlink="http://www.w3.org/1999/xlink" width="208.203125" height="200"><defs><style type="text/css"></style></defs><path d="M637.259758 876.861333a76.630608 76.630608 0 0 0-31.40275 6.912555q-91.245724 39.500313-182.88645 79.000626l-52.732918 22.910182a77.223113 77.223113 0 0 1-13.430107 4.740038 16.985135 16.985135 0 0 1-12.245097 0 18.565147 18.565147 0 0 1-5.332542-10.665085c0-2.370019 0-4.542536-0.987508-6.32005l19.750156-211.919181c1.580013-18.367646 3.357527-36.735291 4.93754-55.102937a69.32305 69.32305 0 0 0-18.170145-55.892943l-170.24635-194.934047a56.485448 56.485448 0 0 1-10.467583-15.20762 10.862586 10.862586 0 0 1 5.135041-15.602624 59.25047 59.25047 0 0 1 21.725172-7.110056l249.049476-55.892944a69.32305 69.32305 0 0 0 46.215366-33.772768q65.175517-110.600877 130.746037-220.806751c3.357527-5.925047 91.443225 155.03873 116.525925 197.501566 11.257589 19.750157 82.160652 53.325423 103.49082 58.065461l59.25047 13.232605c31.402749 6.912555 64.188009 11.652592 89.270709 14.615116a30.020238 30.020238 0 0 1 24.095191 41.475329c-9.282574 22.120175-128.771021 118.50094-161.951285 247.864466-24.687696 97.368272 42.85784 230.089325 1.185009 277.884704-74.853094 86.505686-206.981642-80.975642-211.524177-80.975642z" fill="#e98f36" p-id="1710"></path><path d="M547.396545 389.82247a56.880451 56.880451 0 0 0-31.402749-2.765022 150.298692 150.298692 0 0 0-132.918555 143.78114 60.830483 60.830483 0 0 0 0 8.492568 31.995254 31.995254 0 0 0 61.817991 10.665084 51.942912 51.942912 0 0 0 4.542536-19.750157 83.938166 83.938166 0 0 1 79.000626-76.828109 47.992881 47.992881 0 0 0 22.120176-6.517552 30.810244 30.810244 0 0 0 15.800125-30.612742 30.415241 30.415241 0 0 0-19.750156-25.675204z" fill="#e98f36" p-id="1711"></path><path d="M1066.628163 400.685056a80.975642 80.975642 0 0 0-16.195128-42.265335 104.67583 104.67583 0 0 0-62.805498-39.500314l-37.722799-8.690069-72.680577-15.997627q-61.027984-13.82511-122.055968-27.255216a19.750157 19.750157 0 0 1-15.207621-11.060088A15611.906336 15611.906336 0 0 0 619.089613 51.502286a95.590758 95.590758 0 0 0-75.050595-51.350407 103.490821 103.490821 0 0 0-97.565774 55.892943L395.122837 143.735518A1265.590039 1265.590039 0 0 1 327.3798 256.903915c-15.997627 21.527671-65.373019 22.317677-89.46821 27.65022l-94.208247 21.52767a375.252977 375.252977 0 0 0-82.358154 19.750157A92.03573 92.03573 0 0 0 0.119704 417.275187a110.798379 110.798379 0 0 0 30.612743 68.138041c22.120175 24.490194 43.845348 49.572893 65.768021 74.260589s39.500313 43.647846 57.867959 65.57052c11.850094 13.430107 29.230232 25.477702 34.562774 43.450345a204.809125 204.809125 0 0 1-3.555028 68.335542L180.043631 790.158145c-2.962523 31.600251-6.122549 63.003-8.690069 94.603251l-1.185009 11.45509a181.701441 181.701441 0 0 0 0 46.412869 92.430733 92.430733 0 0 0 71.100564 79.000626 100.133294 100.133294 0 0 0 19.750156 2.172517 122.648473 122.648473 0 0 0 49.770395-11.652592L365.892605 987.659712l92.03573-39.500314 47.202875-19.750156c12.442599-5.530044 21.725172-12.837602 35.550282-9.480075a328.050102 328.050102 0 0 1 46.807871 19.750156l107.440852 46.412868 22.120175 9.875079a553.004387 553.004387 0 0 0 55.892944 22.910181 92.430733 92.430733 0 0 0 113.760902-42.265335 105.465837 105.465837 0 0 0 11.850094-59.25047c-2.172517-25.675204-4.740038-51.152906-7.110056-76.828109l-3.75253-38.315304c-2.765022-22.910182-4.345034-46.215367-6.517552-69.32305-1.580013-16.787633-5.530044-33.180263-6.122548-50.165398s12.047596-28.440226 24.687696-42.660338l74.655592-85.123176 61.81799-69.915554A121.463463 121.463463 0 0 0 1066.628163 400.685056zM795.261011 680.544776c3.160025 26.662711 5.530044 53.522925 7.900063 80.185636 1.185009 13.430107 2.370019 26.860213 3.752529 39.500313l11.25759 118.50094a39.500313 39.500313 0 0 1 0 13.82511 11.257589 11.257589 0 0 1-14.615116 10.270081 70.508059 70.508059 0 0 1-15.010119-4.937539l-224.954285-96.578266a72.878078 72.878078 0 0 0-60.237978 0l-174.393883 75.6431-50.362899 21.527671a76.433106 76.433106 0 0 1-12.837602 4.542536 15.405122 15.405122 0 0 1-11.652593-0.987508 15.602624 15.602624 0 0 1-5.13504-10.07258v-6.122549l19.750156-202.241604c1.580013-17.380138 3.357527-34.957777 4.740038-52.535417a67.150533 67.150533 0 0 0-17.182636-53.325423L91.760431 432.68031a54.312931 54.312931 0 0 1-10.07258-14.417615 10.467583 10.467583 0 0 1 4.937539-15.010119 59.25047 59.25047 0 0 1 19.750157-6.912555l237.001879-53.127921a66.360526 66.360526 0 0 0 44.04285-32.390257Q451.213282 205.356006 513.623777 100.087671a50.362899 50.362899 0 0 1 10.467583-14.615116 11.060088 11.060088 0 0 1 17.775141 0 82.555655 82.555655 0 0 1 8.690069 11.25759l53.917928 91.443225q36.142787 60.830483 71.89057 121.463464a70.310558 70.310558 0 0 0 47.202874 34.562774l57.077953 12.6401 185.058968 41.277827a47.400376 47.400376 0 0 1 14.022611 5.332543 10.665085 10.665085 0 0 1 4.937539 15.20762 54.707934 54.707934 0 0 1-9.480075 13.627608l-45.227859 51.350408c-37.722799 43.055342-75.445598 86.110683-113.958404 128.771021a82.358153 82.358153 0 0 0-20.737664 68.138041z" fill="#262626" p-id="1712"></path></svg>