<?xml version="1.0" standalone="no"?><!DOCTYPE svg PUBLIC "-//W3C//DTD SVG 1.1//EN" "http://www.w3.org/Graphics/SVG/1.1/DTD/svg11.dtd"><svg t="1584586274029" class="icon" viewBox="0 0 1024 1024" version="1.1" xmlns="http://www.w3.org/2000/svg" p-id="3771" xmlns:xlink="http://www.w3.org/1999/xlink" width="200" height="200"><defs><style type="text/css"></style></defs><path d="M449.12 140.48c-12.48-12.48-30.24-20.64-49.44-20.64H185.6c-19.2 0-36.96 8.16-49.92 20.64C123.2 153.44 115.04 171.2 115.04 190.4v214.08c0 19.2 8.16 36.96 20.64 49.92 12.96 12.96 30.24 20.64 49.92 20.64h214.08c19.2 0 36.96-8.16 49.44-20.64 12.96-12.96 20.64-30.24 20.64-49.44V190.4c0-19.2-8.16-36.96-20.64-49.92zM416 420.32c-6.72 6.72-15.84 10.56-25.44 10.56H195.2c-10.08 0-19.2-4.32-25.92-10.56-6.72-6.72-10.56-15.84-10.56-25.44V200c0-10.08 4.32-19.2 10.56-25.92 6.72-6.72 15.84-10.56 25.44-10.56h194.88c10.08 0 19.2 4.32 25.44 10.56 6.72 6.72 10.56 15.84 10.56 25.44l0.96 195.36c0 10.08-3.84 19.2-10.56 25.44zM880.64 140.48c-12.96-12.96-30.24-20.64-49.92-20.64h-214.08c-19.2 0-36.96 8.16-49.92 20.64-12.96 12.96-20.64 30.24-20.64 49.92v214.08c0 19.2 8.16 36.96 20.64 49.92 12.96 12.48 30.24 20.64 49.92 20.64h214.08c19.2 0 36.96-8.16 49.92-20.64 12.96-12.96 20.64-30.24 20.64-49.92V190.4c0-19.2-8.16-36.96-20.64-49.92z m-24 253.92c0 10.08-3.84 19.2-10.56 25.44-6.72 6.72-15.84 10.56-25.44 10.56h-194.88c-10.08 0-19.2-4.32-25.92-10.56-6.72-6.72-10.56-15.84-10.56-25.44V200h0.48c0-10.08 4.32-19.2 10.56-25.92 6.72-6.72 15.84-10.56 25.44-10.56h194.88c10.08 0 19.2 4.32 25.44 10.56 6.72 6.72 10.56 15.84 10.56 25.44v194.88zM454.4 568.16c-12.96-12.48-30.72-20.64-49.92-20.64H185.6c-19.2 0-36.96 8.16-49.92 20.64-12.96 12.96-20.64 30.24-20.64 49.92v214.08c0 19.2 8.16 36.96 20.64 49.92 12.96 12.96 30.24 20.64 49.92 20.64h218.88c19.2 0 36.96-8.16 49.92-20.64 12.96-12.96 20.64-30.24 20.64-49.92v-214.08c0-19.2-8.16-36.96-20.64-49.92z m-23.04 254.4c0 10.08-4.32 19.2-10.56 25.92-6.72 6.72-15.84 10.56-25.44 10.56H195.68c-10.08 0-19.2-4.32-25.44-10.56-6.72-6.72-10.56-15.84-10.56-25.44v-194.88c0-10.08 3.84-19.2 10.56-25.44 6.72-6.72 15.84-10.56 25.44-10.56h199.68c10.08 0 19.2 4.32 25.44 10.56 6.72 6.72 10.56 15.84 10.56 25.44v194.4zM908.48 868.16l-41.76-39.84c20.64-27.36 28.8-55.68 30.72-92.16 2.4-48.48-14.88-93.6-45.12-127.2-30.24-33.6-73.44-55.68-121.92-58.08s-93.6 14.88-127.2 45.12-55.68 73.44-58.08 121.92c-2.4 48.48 14.88 93.6 45.12 127.2 30.24 33.6 73.44 55.68 121.92 58.08 48.48 2.4 88.32-10.08 121.92-39.84l44.64 41.76c7.68 5.76 24 8.16 33.6-3.36 7.68-9.6 4.32-26.4-3.84-33.6z m-52.8-134.4c-1.92 36.96-18.72 69.6-44.16 92.16-25.44 22.56-60 36-96.48 34.56-36.96-1.92-69.6-18.72-92.64-44.16-22.56-25.44-36-60-34.08-96.48 1.44-36.48 18.24-69.12 43.68-92.16 25.44-22.56 60-36 96.96-34.56 36.96 1.92 69.6 18.72 92.64 44.16 22.56 25.44 36 59.52 34.08 96.48z" fill="#409EFF" p-id="3772"></path></svg>