<?xml version="1.0" standalone="no"?><!DOCTYPE svg PUBLIC "-//W3C//DTD SVG 1.1//EN" "http://www.w3.org/Graphics/SVG/1.1/DTD/svg11.dtd"><svg t="1584550120299" class="icon" viewBox="0 0 1024 1024" version="1.1" xmlns="http://www.w3.org/2000/svg" p-id="6189" xmlns:xlink="http://www.w3.org/1999/xlink" width="200" height="200"><defs><style type="text/css"></style></defs><path d="M405.333333 917.333333c0-46.933333-38.4-85.333333-85.333333-85.333333s-85.333333 38.4-85.333333 85.333333 38.4 85.333333 85.333333 85.333334 85.333333-38.4 85.333333-85.333334M874.666667 917.333333c0-46.933333-38.4-85.333333-85.333334-85.333333s-85.333333 38.4-85.333333 85.333333 38.4 85.333333 85.333333 85.333334 85.333333-38.4 85.333334-85.333334M268.8 83.2l6.4 151.466667H917.333333c12.8 0 23.466667 4.266667 32 14.933333 8.533333 8.533333 12.8 21.333333 10.666667 34.133333l-64 469.333334c-2.133333 21.333333-21.333333 36.266667-42.666667 36.266666H256c-6.4 0-10.666667-2.133333-17.066667-2.133333 0 0-2.133333 0-2.133333-2.133333-2.133333 0-4.266667-2.133333-4.266667-2.133334-2.133333 0-2.133333-2.133333-2.133333-2.133333l-2.133333-2.133333-2.133334-2.133334-2.133333-2.133333-2.133333-2.133333c0-2.133333-2.133333-2.133333-2.133334-4.266667v-2.133333c0-2.133333-2.133333-2.133333-2.133333-4.266667s0-6.4-2.133333-8.533333L200.533333 448 185.6 128H85.333333c-23.466667 0-42.666667-19.2-42.666666-42.666667s19.2-42.666667 42.666666-42.666666h140.8c23.466667 0 40.533333 17.066667 42.666667 40.533333zM868.266667 320H279.466667l4.266666 85.333333h573.866667l10.666667-85.333333z m-51.2 384l29.866666-213.333333H288l6.4 155.733333 2.133333 57.6h520.533334z" fill="#2F3CF4" p-id="6190"></path></svg>